<svg width="195" height="195" viewBox="0 0 195 195" fill="none" xmlns="http://www.w3.org/2000/svg">
<rect x="3" y="3" width="189" height="189" rx="23" fill="#EEEEEE" stroke="#1C1C1C" stroke-width="6"/>
<path d="M60.9509 157C57.41 157 53.6632 156.628 49.7106 155.884C45.8404 155.141 42.5877 153.984 39.9526 152.414L42.9171 142.001C45.7168 143.406 48.6813 144.48 51.8105 145.224C54.9396 145.968 58.1511 146.34 61.445 146.34C69.0208 146.34 74.4145 144.48 77.626 140.761C80.8375 137.043 82.5667 131.175 82.8138 123.159L83.0608 116.466C80.7551 120.845 77.7083 124.275 73.9204 126.754C70.2148 129.233 65.8916 130.473 60.9509 130.473C55.516 130.473 50.9458 129.275 47.2402 126.878C43.5347 124.482 40.7349 121.135 38.8409 116.838C36.947 112.54 36 107.623 36 102.086C36 95.4754 37.2764 89.608 39.8291 84.4844C42.4642 79.2781 46.0462 75.2288 50.5753 72.3365C55.1866 69.3615 60.498 67.874 66.5092 67.874C70.6265 67.874 74.2498 68.783 77.3789 70.601C80.5081 72.3365 82.8138 74.6504 84.296 77.5427L85.7782 68.9896H94.5481V121.424C94.5481 133.241 91.6248 142.125 85.7782 148.075C80.014 154.025 71.7382 157 60.9509 157ZM67.1268 78.4104C61.3626 78.4104 56.7512 80.559 53.2927 84.8563C49.8341 89.0708 48.1049 94.525 48.1049 101.219C48.1049 107.169 49.4224 111.797 52.0575 115.102C54.7749 118.325 58.4393 119.936 63.0507 119.936C66.7563 119.936 70.0913 118.862 73.0558 116.714C76.1026 114.565 78.4906 111.631 80.2199 107.913C81.9491 104.194 82.8138 99.9792 82.8138 95.2688C82.8138 90.0625 81.3727 85.9719 78.4906 82.9969C75.6908 79.9392 71.9029 78.4104 67.1268 78.4104Z" fill="#1C1C1C"/>
<path d="M114.657 130.969V78.9063H102.552V68.8656H114.657V64.2792C114.657 58.9076 115.686 54.2799 117.745 50.3958C119.803 46.4292 122.644 43.3715 126.267 41.2229C129.973 39.0743 134.214 38 138.99 38C144.836 38 149.489 39.4875 152.948 42.4625C156.406 45.3549 158.424 49.5281 159 54.9823L148.995 56.2219C148.336 50.7677 144.919 48.0406 138.743 48.0406C134.873 48.0406 131.826 49.3629 129.602 52.0073C127.379 54.5691 126.267 58.2879 126.267 63.1635V68.8656H146.154V78.9063H126.514V130.969H114.657Z" fill="#1C1C1C"/>
</svg>
